<?xml version="1.0" standalone="no"?>
<!DOCTYPE svg PUBLIC "-//W3C//DTD SVG 20010904//EN"
 "http://www.w3.org/TR/2001/REC-SVG-20010904/DTD/svg10.dtd">
<svg version="1.0" xmlns="http://www.w3.org/2000/svg"
 width="512.000000pt" height="512.000000pt" viewBox="0 0 512.000000 512.000000"
 preserveAspectRatio="xMidYMid meet">

<g transform="translate(0.000000,512.000000) scale(0.100000,-0.100000)"
fill="#000000" stroke="none">
<path d="M2395 5109 c-301 -30 -615 -128 -871 -271 -631 -350 -1049 -951
-1161 -1668 -24 -159 -24 -500 0 -660 39 -253 100 -447 212 -675 153 -313 373
-584 649 -800 l87 -67 -8 -62 c-4 -33 -7 -71 -6 -84 1 -26 30 -62 50 -62 16 0
16 -1 1 -110 -11 -85 -12 -88 -39 -94 -16 -3 -35 -16 -43 -28 -19 -30 -50
-250 -42 -306 18 -134 151 -234 291 -219 99 10 199 82 225 163 6 17 26 142 44
278 18 135 35 249 38 252 3 3 22 -2 42 -10 63 -26 254 -76 375 -98 147 -26
471 -36 622 -19 148 17 325 54 457 96 63 20 115 35 117 33 1 -2 15 -115 29
-253 18 -169 33 -263 45 -290 36 -81 122 -140 219 -152 148 -17 291 104 292
248 0 19 -16 191 -36 382 l-37 348 22 15 c118 83 313 270 426 409 248 304 405
653 476 1055 27 147 37 462 20 610 -32 283 -109 543 -233 791 -43 86 -78 161
-78 167 0 24 119 129 187 165 76 40 103 67 103 104 0 46 -23 74 -92 110 -129
68 -212 163 -270 311 -37 93 -65 122 -118 122 -50 0 -74 -26 -111 -120 -29
-74 -94 -181 -114 -187 -5 -1 -53 32 -106 75 -142 115 -195 147 -226 136 -14
-5 -35 -21 -45 -35 -34 -45 -18 -70 106 -163 61 -46 119 -92 129 -103 17 -19
16 -20 -22 -38 -74 -33 -100 -83 -76 -141 11 -26 28 -40 80 -65 124 -58 220
-172 281 -332 30 -79 68 -112 118 -102 35 6 53 20 77 60 l18 29 42 -89 c139
-300 196 -542 206 -865 16 -523 -144 -995 -475 -1406 -77 -96 -250 -270 -313
-314 l-28 -21 -5 33 c-3 18 -20 162 -36 321 l-31 287 71 98 c327 454 394 1059
175 1572 -85 199 -207 372 -379 537 l-114 110 -17 159 c-18 180 -33 230 -83
286 -99 110 -265 116 -367 13 -42 -41 -75 -114 -75 -163 0 -18 -4 -23 -16 -18
-8 3 -61 16 -117 28 -87 19 -133 22 -312 22 -180 0 -225 -3 -315 -23 -111 -23
-290 -81 -351 -112 -36 -18 -40 -18 -198 3 -152 21 -163 21 -196 5 -56 -27
-70 -61 -90 -219 -17 -137 -19 -144 -50 -178 -126 -133 -266 -373 -330 -562
-67 -200 -78 -278 -79 -518 0 -185 3 -229 22 -315 58 -265 169 -502 330 -700
l48 -60 -40 -308 c-22 -169 -44 -307 -48 -307 -13 0 -133 103 -218 189 -535
537 -742 1317 -545 2058 154 581 566 1080 1116 1352 547 272 1200 292 1761 56
45 -19 95 -35 109 -35 32 0 69 41 69 74 0 43 -29 64 -158 114 -187 74 -339
114 -532 142 -104 15 -426 21 -535 9z m2133 -706 c23 -24 60 -56 82 -72 l40
-29 -34 -22 c-52 -31 -158 -150 -193 -215 l-30 -57 -30 54 c-43 74 -112 156
-173 202 l-52 40 28 19 c52 36 151 145 189 206 l37 61 47 -72 c26 -40 66 -92
89 -115z m-1147 74 c19 -13 37 -35 41 -52 5 -17 49 -410 98 -875 49 -465 92
-866 95 -891 l6 -45 -111 -13 c-62 -7 -116 -9 -120 -4 -4 4 -12 58 -18 118 -6
61 -18 128 -28 150 -10 24 -49 72 -100 120 -83 80 -84 82 -84 129 0 27 14 333
30 680 33 685 30 662 91 693 35 18 62 16 100 -10z m-558 -192 c104 -16 217
-42 229 -54 4 -3 -5 -263 -19 -576 -15 -314 -24 -586 -20 -606 10 -51 57 -117
117 -164 28 -22 58 -53 67 -69 11 -20 35 -214 79 -620 35 -325 64 -600 64
-612 0 -16 -19 -29 -87 -62 -325 -154 -699 -185 -1038 -87 -87 25 -271 100
-279 114 -4 7 161 1276 169 1298 2 7 30 24 62 39 77 37 156 117 194 198 28 59
35 102 94 546 57 428 63 486 51 514 -25 57 -56 76 -150 90 -47 7 -89 15 -92
18 -4 5 92 24 206 41 64 10 265 5 353 -8z m-1050 -149 c-7 -43 -93 -705 -93
-716 0 -20 49 -60 74 -60 14 0 36 10 50 23 25 21 28 36 73 382 25 198 49 363
52 366 6 7 131 -7 139 -16 2 -2 -17 -166 -43 -365 -52 -388 -52 -398 -1 -421
32 -15 72 -4 90 24 9 13 33 164 61 382 26 198 48 361 49 362 3 3 130 -17 134
-21 1 -2 -24 -203 -57 -448 -45 -342 -64 -454 -79 -485 -27 -51 -83 -101 -153
-136 -87 -42 -107 -79 -130 -234 -10 -70 -19 -140 -19 -155 0 -15 -4 -29 -9
-32 -9 -6 -219 19 -227 26 -2 3 5 72 17 155 26 193 22 213 -68 302 -127 127
-126 116 -58 634 30 232 58 433 61 448 5 25 5 25 73 16 61 -9 67 -11 64 -31z
m2058 -480 c107 -159 178 -326 221 -516 20 -90 23 -132 23 -300 0 -218 -10
-287 -71 -470 -34 -103 -140 -320 -160 -327 -7 -2 -161 1367 -201 1792 l-4 50
66 -69 c36 -38 93 -110 126 -160z m-2439 -183 c-21 -158 -23 -198 -14 -251 15
-92 56 -167 129 -240 54 -54 63 -68 59 -90 -3 -15 -31 -220 -61 -457 -31 -236
-58 -437 -61 -445 -7 -19 -82 96 -139 215 -53 108 -89 213 -117 343 -29 133
-32 423 -5 557 26 128 72 266 124 370 38 77 100 185 107 185 1 0 -9 -84 -22
-187z m1972 -2105 c3 -18 15 -123 26 -233 11 -110 23 -216 26 -236 l5 -37 -88
-32 c-366 -132 -817 -157 -1203 -64 -88 21 -277 80 -288 89 -3 2 51 431 63
501 l6 32 81 -35 c361 -152 768 -167 1140 -43 64 21 138 50 165 64 26 14 51
25 55 26 4 0 9 -15 12 -32z"/>
<path d="M553 1268 c-11 -13 -39 -62 -61 -110 -46 -100 -116 -177 -187 -209
-60 -27 -85 -55 -85 -97 0 -50 15 -69 78 -99 85 -40 142 -104 198 -219 26 -55
54 -104 63 -111 22 -17 82 -16 107 1 12 8 29 37 39 63 47 127 119 215 218 264
74 38 96 78 73 134 -9 21 -26 40 -43 47 -109 47 -184 127 -235 251 -16 40 -39
80 -50 90 -29 25 -90 22 -115 -5z m96 -279 c19 -27 56 -70 84 -94 l49 -45 -51
-46 c-28 -25 -65 -68 -82 -95 -18 -27 -35 -49 -38 -49 -3 0 -18 20 -34 44 -15
24 -51 66 -81 94 l-55 52 57 54 c31 30 68 73 82 95 14 22 27 40 30 40 3 0 20
-22 39 -50z"/>
</g>
</svg>
