<?xml version="1.0" standalone="no"?>
<!DOCTYPE svg PUBLIC "-//W3C//DTD SVG 20010904//EN"
 "http://www.w3.org/TR/2001/REC-SVG-20010904/DTD/svg10.dtd">
<svg version="1.0" xmlns="http://www.w3.org/2000/svg"
 width="335.000000pt" height="360.000000pt" viewBox="0 0 335.000000 360.000000"
 preserveAspectRatio="xMidYMid meet">

<g transform="translate(0.000000,360.000000) scale(0.100000,-0.100000)"
fill="#000000" stroke="none">
<path d="M197 3333 c-4 -3 -7 -165 -7 -360 l0 -353 360 0 360 0 -2 358 -3 357
-351 3 c-193 1 -353 -1 -357 -5z m611 -355 l2 -258 -260 0 -260 0 0 253 c0
140 3 257 7 261 4 3 119 5 257 4 l251 -3 3 -257z"/>
<path d="M397 3134 c-4 -4 -7 -76 -7 -161 l0 -153 160 0 161 0 -3 158 -3 157
-151 3 c-82 1 -153 -1 -157 -4z"/>
<path d="M1127 3334 c-4 -4 -7 -27 -7 -50 l0 -43 -52 -3 -53 -3 -3 -52 -3 -53
55 0 56 0 0 55 0 55 50 0 50 0 0 -104 0 -105 -47 -3 -48 -3 -3 -47 -3 -47 -52
-3 -52 -3 -3 -52 -3 -52 53 -3 53 -3 3 -47 3 -47 -53 -3 -53 -3 -3 -47 -3 -48
55 0 56 0 0 -105 0 -105 -104 0 -105 0 -3 53 -3 52 -45 0 -45 0 -3 -52 -3 -53
50 0 51 0 0 -50 0 -49 -102 -3 -103 -3 -3 -47 -3 -48 -49 0 -49 0 -3 48 -3 47
-45 0 -45 0 -3 -102 -3 -103 -50 0 -50 0 3 153 3 152 48 3 48 3 -3 52 -3 52
-50 0 -50 0 -3 -52 -3 -53 -49 0 -49 0 -3 53 -3 52 -45 0 -45 0 -3 -102 -3
-102 48 -3 48 -3 3 -102 3 -102 -48 -3 -48 -3 -3 -102 -3 -103 50 0 50 0 3 53
3 52 45 0 45 0 3 -102 3 -102 -98 -3 -98 -3 -3 -102 -3 -102 48 -3 48 -3 3
-47 3 -47 -48 -3 -48 -3 -3 -52 -3 -52 48 -3 48 -3 3 -42 3 -42 -48 -3 -48 -3
-3 -52 -3 -53 50 0 50 0 3 48 3 47 53 3 53 3 -3 52 -3 52 -52 3 -53 3 0 50 0
49 55 0 54 0 3 153 3 152 45 0 45 0 3 -102 3 -102 47 -3 47 -3 3 -47 3 -48
105 0 104 0 0 -49 0 -50 -52 -3 -53 -3 -3 -52 -3 -52 53 -3 53 -3 3 -47 3 -48
49 0 49 0 3 48 3 47 53 3 53 3 -3 52 -3 52 -52 3 -52 3 -3 47 -3 47 -48 3 -48
3 3 47 3 47 48 3 48 3 -3 52 -3 52 -48 3 -48 3 3 47 3 47 48 3 48 3 -3 52 -3
52 -48 3 -48 3 3 47 3 47 48 3 47 3 0 50 0 49 54 0 55 0 3 48 3 47 98 3 97 3
0 55 0 55 48 -3 47 -3 3 -102 3 -102 -98 -3 -98 -3 -3 -47 -3 -47 -52 -3 -52
-3 -3 -52 -3 -53 105 0 105 0 3 53 3 52 52 3 52 3 3 47 3 47 55 5 c41 4 66 14
99 38 62 45 127 62 242 62 74 0 100 -3 106 -14 4 -8 32 -30 62 -50 43 -29 62
-36 101 -36 l49 0 3 48 3 47 45 0 45 0 3 -147 3 -147 -47 -3 -46 -3 -2 -53 -1
-52 52 0 52 0 3 48 3 47 40 0 40 0 3 -97 3 -97 -48 -3 -48 -3 -3 -102 -3 -102
48 -3 48 -3 3 -52 3 -53 54 0 54 0 3 103 3 102 45 0 45 0 3 -102 3 -102 47 -3
47 -3 3 -42 3 -42 -153 -3 -153 -3 -3 -52 -3 -52 -47 -3 -47 -3 -3 -52 -3 -52
48 -3 48 -3 3 -197 2 -198 -44 0 -45 0 -3 47 -3 48 -105 0 -105 0 -3 -47 -3
-47 -47 -3 -47 -3 -3 -52 -3 -52 48 -3 48 -3 3 -47 3 -48 -100 0 -100 0 -3
103 -3 102 -103 3 -103 3 3 147 3 147 52 3 52 3 3 47 3 47 97 3 97 3 3 52 3
52 52 3 52 3 3 47 3 47 48 3 48 3 -3 52 -3 52 -48 3 -48 3 3 47 3 47 48 3 48
3 -3 52 -3 52 -40 3 c-34 2 -48 -3 -85 -33 -64 -50 -137 -75 -220 -75 l-70 0
0 -49 0 -50 -47 -3 -48 -3 -3 -47 -3 -48 -100 0 -100 0 3 42 3 43 48 3 47 3 0
55 c0 29 -3 54 -6 54 -3 0 -25 -5 -50 -11 -35 -9 -51 -9 -68 0 -13 7 -36 11
-52 9 -27 -3 -29 -6 -32 -50 l-3 -47 -47 -3 -47 -3 -3 -52 -3 -52 98 -3 98 -3
3 -47 3 -47 52 -3 52 -3 3 -52 3 -52 47 -3 47 -3 3 -42 3 -42 -103 -3 -103 -3
-3 -52 -3 -53 -49 0 -49 0 -3 153 -3 152 -100 0 -100 0 -3 -52 -3 -52 53 -3
53 -3 3 -97 3 -97 -53 -3 -53 -3 -3 -52 -3 -52 53 -3 53 -3 3 -42 3 -42 -53
-3 -53 -3 -3 -52 -3 -53 55 0 55 0 3 47 3 48 47 3 47 3 3 47 3 47 100 0 100 0
3 -42 3 -42 -53 -3 -53 -3 -3 -53 -3 -52 55 0 55 0 3 48 3 47 45 0 45 0 3 -47
3 -47 47 -3 47 -3 3 -47 3 -47 -48 -3 -48 -3 -3 -52 -3 -53 55 0 55 0 3 48 3
47 45 0 45 0 3 -47 3 -48 104 0 104 0 3 48 3 47 145 0 145 0 3 -48 3 -47 54 0
54 0 3 48 3 47 53 3 53 3 -3 107 -3 107 -53 3 -53 3 3 42 3 42 95 0 95 0 3
-97 3 -97 52 -3 52 -3 3 -47 3 -47 -53 -3 -53 -3 -3 -52 -3 -53 161 0 161 0
-3 53 -3 52 -48 3 -48 3 3 47 3 47 47 3 47 3 3 47 3 47 47 3 47 3 3 47 3 47
52 3 52 3 3 52 3 52 48 3 48 3 -3 152 -3 152 -155 0 -155 0 -3 -48 -3 -47 -45
0 -45 0 3 98 3 97 48 3 48 3 -3 52 -3 52 -48 3 -48 3 3 47 3 47 98 3 97 3 0
-106 0 -105 54 0 55 0 3 48 3 47 48 3 48 3 -3 157 -3 157 -48 3 -48 3 3 47 3
47 48 3 48 3 -3 152 -3 152 -48 3 -48 3 3 47 3 47 48 3 48 3 -3 102 -3 102
-47 3 -47 3 -3 52 -3 52 -50 0 -50 0 -3 -52 -3 -52 48 -3 48 -3 3 -47 3 -48
-100 0 -100 0 -3 48 -3 47 -47 3 -47 3 -3 52 -3 52 -50 0 -50 0 -3 -52 -3 -52
48 -3 48 -3 3 -47 3 -48 -100 0 -100 0 -3 48 -3 47 -100 0 -100 0 -3 -47 -3
-47 -52 -3 -52 -3 -3 -47 -3 -48 -44 0 -44 0 -3 48 -3 47 -52 3 -52 3 -3 47
-3 47 -48 3 -48 3 3 47 3 47 48 3 47 3 0 55 0 55 48 -3 47 -3 3 -52 3 -53 105
0 105 0 -3 103 -3 102 -47 3 -47 3 -3 52 -3 52 -48 3 -48 3 3 47 3 47 47 3 47
3 3 47 3 47 48 3 48 3 -3 52 -3 52 -47 3 -47 3 -3 47 -3 47 -47 3 -47 3 -3 47
-3 47 -105 0 -105 0 -3 -102 -3 -102 53 -3 53 -3 3 -47 3 -48 -105 0 -105 0
-3 53 -3 52 -45 0 -45 0 -3 -52 -3 -53 50 0 51 0 0 -100 0 -100 -100 0 -99 0
-3 98 -3 97 -100 0 -100 0 -3 -47 -3 -48 -105 0 -104 0 0 50 0 50 54 0 55 0 3
48 3 47 48 3 48 3 -3 102 -3 102 -50 0 -50 0 -3 -47 -3 -48 -49 0 -49 0 -3 48
-3 47 -40 3 c-23 2 -44 0 -48 -4z m1021 -146 l3 -48 -50 0 -51 0 0 43 c0 24 3
47 7 51 4 4 25 6 48 4 l40 -3 3 -47z m-620 -315 l3 -52 47 -3 47 -3 3 -97 3
-98 54 0 54 0 3 48 3 47 45 0 45 0 3 -47 3 -47 47 -3 47 -3 3 -47 3 -48 -50 0
-51 0 0 50 0 50 -50 0 -50 0 0 -54 0 -55 48 -3 47 -3 3 -47 3 -47 -48 -3 -48
-3 -3 -47 -3 -48 -49 0 -49 0 -3 48 -3 47 -50 0 -50 0 -3 -47 -3 -47 48 -3 48
-3 3 -47 3 -48 -50 0 -51 0 0 50 0 50 -49 0 -50 0 -3 48 -3 47 -102 3 -103 3
0 -51 0 -50 -50 0 -50 0 0 50 0 50 50 0 50 0 0 105 0 105 -50 0 -50 0 0 50 0
50 49 0 50 0 3 48 3 47 45 0 45 0 3 -47 3 -48 -50 0 -51 0 0 -49 0 -50 48 -3
47 -3 3 -52 3 -53 105 0 105 0 -3 103 -3 102 -47 3 -48 3 0 -50 0 -51 -51 0
-50 0 3 48 3 47 48 3 47 3 0 105 0 105 48 -3 47 -3 3 -52z m620 -105 l3 -48
-50 0 -51 0 0 -50 0 -50 -51 0 -50 0 3 48 3 47 48 3 47 3 0 43 c0 23 3 46 7
50 4 4 25 6 48 4 l40 -3 3 -47z m100 -100 l3 -48 -45 0 -46 0 0 43 c0 53 5 59
50 55 34 -3 35 -4 38 -50z m620 -415 l3 -52 52 -3 52 -3 3 -97 3 -97 47 -3 47
-3 3 -47 3 -47 -48 -3 -48 -3 -3 -152 -3 -153 -49 0 -50 0 -2 253 -3 252 -47
3 -48 3 0 98 c0 54 3 101 7 105 4 4 23 6 43 4 35 -3 35 -3 38 -55z m-1960
-105 l3 -48 -100 0 -101 0 0 43 c0 24 3 47 7 51 4 4 48 5 98 4 l90 -3 3 -47z
m1760 0 l3 -47 47 -3 47 -3 3 -152 3 -152 -48 -3 -48 -3 -3 -47 -3 -47 48 -3
48 -3 3 -102 3 -103 -50 0 -50 0 -3 53 -3 52 -47 3 -47 3 -3 97 -3 97 -48 3
-48 3 3 47 3 47 48 3 48 3 -3 102 -3 102 -50 0 -50 0 -3 -47 -3 -48 -50 0 -49
0 0 93 c0 52 3 97 7 101 4 3 72 5 152 4 l146 -3 3 -47z m-1970 -200 l3 -48
-100 0 -101 0 0 43 c0 24 3 47 7 51 4 4 48 5 98 4 l90 -3 3 -47z m1760 -210
l3 -48 -50 0 -51 0 0 43 c0 24 3 47 7 51 4 4 25 6 48 4 l40 -3 3 -47z m-1648
-98 l0 -50 -50 0 -50 0 0 43 c0 24 3 47 7 50 3 4 26 7 50 7 l43 0 0 -50z
m2268 -112 l3 -48 -50 0 -51 0 0 43 c0 24 3 47 7 51 4 4 25 6 48 4 l40 -3 3
-47z m-2170 -205 l3 -43 -50 0 -51 0 0 38 c0 49 5 54 55 50 39 -3 40 -4 43
-45z m930 0 l3 -43 -50 0 -51 0 0 38 c0 49 5 54 55 50 39 -3 40 -4 43 -45z
m930 0 l3 -43 -50 0 -51 0 0 38 c0 49 5 54 55 50 39 -3 40 -4 43 -45z m-1140
-155 l3 -98 -51 0 -50 0 0 93 c0 52 3 97 7 101 4 4 25 6 48 4 l40 -3 3 -97z
m1040 -155 l3 -153 -156 0 -155 0 0 148 c0 82 3 152 7 156 4 3 72 5 152 4
l146 -3 3 -152z m310 -5 l3 -47 47 -3 47 -3 3 -47 3 -47 -48 -3 -48 -3 -3 -47
-3 -47 -52 -3 -52 -3 -3 -47 -3 -48 -45 0 -45 0 3 98 3 97 48 3 47 3 0 93 c0
51 3 96 7 100 4 4 25 6 48 4 l40 -3 3 -47z m-930 -410 l3 -48 -50 0 -51 0 0
43 c0 24 3 47 7 51 4 4 25 6 48 4 l40 -3 3 -47z m310 0 l3 -48 -50 0 -51 0 0
43 c0 24 3 47 7 51 4 4 25 6 48 4 l40 -3 3 -47z"/>
<path d="M2467 1064 c-4 -4 -7 -29 -7 -56 l0 -48 56 0 55 0 -3 53 -3 52 -45 3
c-25 2 -49 0 -53 -4z"/>
<path d="M1637 3334 c-4 -4 -7 -27 -7 -50 l0 -43 -47 -3 -48 -3 -3 -52 -3 -53
55 0 55 0 3 53 3 52 48 3 48 3 -3 47 -3 47 -45 3 c-25 2 -49 0 -53 -4z"/>
<path d="M2467 3333 c-4 -3 -7 -165 -7 -360 l0 -353 365 0 365 0 -2 358 -3
357 -356 3 c-195 1 -358 -1 -362 -5z m611 -355 l2 -258 -255 0 -255 0 0 253
c0 140 3 257 7 261 4 3 117 5 252 4 l246 -3 3 -257z"/>
<path d="M2677 3134 c-4 -4 -7 -76 -7 -161 l0 -153 155 0 156 0 -3 158 -3 157
-146 3 c-80 1 -148 -1 -152 -4z"/>
<path d="M607 2514 c-4 -4 -7 -29 -7 -56 l0 -48 56 0 55 0 -3 53 -3 52 -45 3
c-25 2 -49 0 -53 -4z"/>
<path d="M1633 2150 c-196 -39 -305 -237 -235 -429 14 -40 14 -48 -3 -117 -10
-41 -16 -76 -13 -79 3 -3 39 4 80 15 71 19 77 20 114 3 24 -10 67 -17 115 -17
68 -1 83 3 145 34 198 101 233 358 69 509 -76 70 -175 100 -272 81z m194 -86
c58 -36 106 -104 123 -175 26 -107 -29 -225 -130 -283 -48 -27 -64 -31 -130
-31 -53 0 -85 6 -109 19 -29 15 -40 16 -78 6 -25 -6 -47 -9 -50 -6 -2 2 1 22
7 45 9 33 8 46 -4 70 -76 146 -9 314 149 378 17 8 60 11 102 9 59 -2 82 -8
120 -32z"/>
<path d="M1555 1966 c-44 -44 -24 -113 55 -193 78 -78 177 -106 221 -62 27 27
21 49 -19 72 l-33 19 -25 -23 -25 -23 -35 19 c-20 11 -47 35 -60 54 -21 32
-22 36 -8 52 14 15 14 23 3 54 -19 52 -43 62 -74 31z"/>
<path d="M1017 1784 c-4 -4 -7 -74 -7 -156 l0 -148 54 0 55 0 3 48 3 47 48 3
48 3 -3 102 -3 102 -95 3 c-53 1 -99 0 -103 -4z"/>
<path d="M2037 1716 c-4 -10 -5 -21 -2 -24 9 -9 17 6 13 25 -3 17 -4 17 -11
-1z"/>
<path d="M1327 1683 c-4 -3 -7 -36 -7 -72 0 -72 10 -72 30 1 16 59 3 98 -23
71z"/>
<path d="M1534 1498 c-10 -15 2 -20 41 -16 l37 3 -36 11 c-22 7 -39 8 -42 2z"/>
<path d="M197 1063 c-4 -3 -7 -168 -7 -365 l0 -358 360 0 360 0 -2 363 -3 362
-351 3 c-193 1 -353 -1 -357 -5z m611 -360 l2 -253 -260 0 -260 0 0 248 c0
137 3 252 7 256 4 3 119 5 257 4 l251 -3 3 -252z"/>
<path d="M397 854 c-4 -4 -7 -74 -7 -156 l0 -148 160 0 161 0 -3 153 -3 152
-151 3 c-82 1 -153 -1 -157 -4z"/>
<path d="M1947 1064 c-4 -4 -7 -52 -7 -106 l0 -98 111 0 110 0 -3 53 -3 52
-52 3 -52 3 -3 47 -3 47 -45 3 c-25 2 -49 0 -53 -4z"/>
<path d="M1747 964 c-4 -4 -7 -29 -7 -56 l0 -48 51 0 50 0 -3 53 -3 52 -40 3
c-23 2 -44 0 -48 -4z"/>
<path d="M3087 654 c-4 -4 -7 -29 -7 -55 l0 -48 -47 -3 -48 -3 -3 -102 -3
-103 106 0 106 0 -3 53 -3 52 -48 3 -48 3 3 47 3 47 48 3 48 3 -3 52 -3 52
-45 3 c-25 2 -49 0 -53 -4z"/>
<path d="M1017 444 c-4 -4 -7 -29 -7 -56 l0 -48 106 0 105 0 -3 53 -3 52 -95
3 c-53 1 -99 0 -103 -4z"/>
</g>
</svg>
