<?xml version="1.0" standalone="no"?>
<!DOCTYPE svg PUBLIC "-//W3C//DTD SVG 20010904//EN"
 "http://www.w3.org/TR/2001/REC-SVG-20010904/DTD/svg10.dtd">
<svg version="1.0" xmlns="http://www.w3.org/2000/svg"
 width="512.000000pt" height="512.000000pt" viewBox="0 0 512.000000 512.000000"
 preserveAspectRatio="xMidYMid meet">

<g transform="translate(0.000000,512.000000) scale(0.100000,-0.100000)"
fill="#000000" stroke="none">
<path d="M3330 5035 l0 -85 296 -2 295 -3 -326 -435 c-180 -239 -333 -448
-342 -464 -17 -33 -11 -68 17 -96 19 -19 35 -20 465 -20 l445 0 0 85 0 85
-335 0 c-184 0 -335 2 -335 5 0 3 142 194 315 426 174 231 325 434 335 452 28
44 25 74 -9 108 l-29 29 -396 0 -396 0 0 -85z"/>
<path d="M2137 4434 c-4 -4 -7 -43 -7 -85 l0 -79 255 -2 255 -3 -241 -310
c-133 -170 -248 -324 -255 -342 -16 -38 -6 -73 28 -97 20 -14 68 -16 375 -16
l353 0 0 85 0 85 -251 2 -251 3 251 323 c271 349 274 354 227 409 l-24 28
-354 3 c-195 1 -357 0 -361 -4z"/>
<path d="M187 4086 c-73 -16 -134 -59 -164 -115 l-23 -44 0 -1879 c0 -1850 0
-1879 20 -1917 71 -141 298 -175 422 -63 67 61 68 65 68 402 l0 300 2050 0
2050 0 0 -321 c0 -307 1 -323 21 -355 43 -71 195 -111 321 -85 67 14 114 43
145 90 l23 34 -2 1243 -3 1243 -34 35 c-51 53 -108 71 -221 71 -84 0 -102 -3
-152 -28 -91 -45 -98 -62 -98 -258 l0 -164 -22 35 c-75 123 -109 170 -174 233
-79 79 -154 129 -242 161 -57 21 -65 21 -1320 24 l-1262 2 -25 -24 -25 -25 -1
-243 0 -243 -22 75 c-70 232 -257 371 -501 372 -232 0 -431 -157 -487 -387
-17 -68 -18 -45 -18 803 -1 837 -2 874 -20 910 -50 97 -173 145 -304 118z
m142 -180 c8 -5 11 -504 11 -1855 0 -1707 -1 -1850 -17 -1862 -9 -8 -39 -14
-68 -14 -29 0 -59 6 -68 14 -16 12 -17 155 -17 1862 0 1393 3 1850 12 1855 33
21 113 21 147 0z m3779 -1364 c132 -42 253 -164 347 -351 69 -138 127 -342
141 -493 l7 -78 -1447 0 -1446 0 0 470 0 470 1169 0 c1109 0 1172 -1 1229 -18z
m811 12 l31 -6 0 -1183 0 -1183 -41 -7 c-22 -4 -60 -4 -85 0 l-44 6 0 1184 0
1184 23 4 c37 7 83 7 116 1z m-3772 -105 c225 -85 288 -382 116 -555 -133
-133 -345 -133 -478 1 -54 54 -80 104 -94 181 -30 166 74 334 239 385 52 15
158 10 217 -12z m-580 -544 c12 -22 33 -56 48 -75 24 -32 24 -35 8 -42 -24 -9
-96 -41 -105 -46 -5 -2 -8 74 -7 170 l0 173 18 -70 c10 -38 27 -88 38 -110z
m970 -171 c-3 -3 -116 52 -125 61 -2 2 7 19 21 37 38 51 73 127 88 192 14 58
14 56 17 -114 1 -95 1 -174 -1 -176z m-128 -131 c11 -10 28 -43 38 -73 13 -38
26 -59 43 -67 20 -10 354 -13 1573 -13 l1547 0 0 -255 0 -255 -2050 0 -2050 0
0 253 0 252 30 17 c30 17 44 40 54 90 4 15 16 37 28 48 21 19 34 20 394 20
339 0 374 -2 393 -17z"/>
<path d="M1192 3668 l3 -83 161 -5 162 -5 -130 -155 c-169 -202 -188 -228
-188 -261 0 -84 17 -89 330 -89 l260 0 0 85 0 85 -160 0 c-88 0 -160 3 -160 6
0 4 64 83 143 178 79 94 151 182 160 196 24 35 21 77 -8 105 l-24 25 -276 0
-276 0 3 -82z"/>
</g>
</svg>
